<svg width="50" height="50" viewBox="0 0 50 50" fill="none" xmlns="http://www.w3.org/2000/svg">
<g clip-path="url(#clip0_105_2661)">
<path d="M25 50C38.8071 50 50 38.8071 50 25C50 11.1929 38.8071 0 25 0C11.1929 0 0 11.1929 0 25C0 38.8071 11.1929 50 25 50Z" fill="#D80027"/>
<path d="M25 36.9565C31.6034 36.9565 36.9565 31.6034 36.9565 25C36.9565 18.3966 31.6034 13.0435 25 13.0435C18.3966 13.0435 13.0435 18.3966 13.0435 25C13.0435 31.6034 18.3966 36.9565 25 36.9565Z" fill="#F0F0F0"/>
<path d="M26.4727 20.4282L28.5238 23.2549L31.8458 22.1777L29.7914 25.002L31.8424 27.8285L28.5215 26.7473L26.4671 29.5715L26.4692 26.0792L23.1484 24.9979L26.4705 23.9208L26.4727 20.4282Z" fill="#D80027"/>
<path d="M27.7172 32.0651C23.8152 32.0651 20.652 28.9019 20.652 24.9999C20.652 21.098 23.8152 17.9347 27.7172 17.9347C28.9338 17.9347 30.0786 18.2423 31.078 18.7839C29.5102 17.2506 27.3661 16.3042 24.9998 16.3042C20.1975 16.3042 16.3042 20.1974 16.3042 24.9998C16.3042 29.8022 20.1975 33.6954 24.9998 33.6954C27.3661 33.6954 29.5103 32.749 31.078 31.2157C30.0786 31.7575 28.9338 32.0651 27.7172 32.0651Z" fill="#D80027"/>
</g>
<defs>
<clipPath id="clip0_105_2661">
<rect width="50" height="50" fill="white"/>
</clipPath>
</defs>
</svg>
