<svg width="50" height="50" viewBox="0 0 50 50" fill="none" xmlns="http://www.w3.org/2000/svg">
<g clip-path="url(#clip0_105_2505)">
<path d="M0 24.9999C0 28.0579 0.550098 30.9872 1.55498 33.6955L25 35.8694L48.445 33.6955C49.4499 30.9872 50 28.0579 50 24.9999C50 21.9419 49.4499 19.0126 48.445 16.3043L25 14.1304L1.55498 16.3043C0.550098 19.0126 0 21.9419 0 24.9999H0Z" fill="#FFDA44"/>
<path d="M48.4452 16.3044C44.9129 6.78447 35.7493 0 25.0002 0C14.2511 0 5.0875 6.78447 1.55518 16.3044H48.4452Z" fill="#D80027"/>
<path d="M1.55518 33.6956C5.0875 43.2155 14.2511 49.9999 25.0002 49.9999C35.7493 49.9999 44.9129 43.2155 48.4452 33.6956H1.55518Z" fill="#D80027"/>
</g>
<defs>
<clipPath id="clip0_105_2505">
<rect width="50" height="50" fill="white"/>
</clipPath>
</defs>
</svg>
