<svg width="50" height="50" viewBox="0 0 50 50" fill="none" xmlns="http://www.w3.org/2000/svg">
<g clip-path="url(#clip0_105_2873)">
<path d="M25 50C38.8071 50 50 38.8071 50 25C50 11.1929 38.8071 0 25 0C11.1929 0 0 11.1929 0 25C0 38.8071 11.1929 50 25 50Z" fill="#F0F0F0"/>
<path d="M50 25C50 38.807 38.807 50 25 50C11.193 50 0 38.807 0 25" fill="#496E2D"/>
<path d="M43.2633 17.3967C42.3692 14.8612 39.9535 13.0435 37.1122 13.0435H31.522C27.9201 13.0435 25.0002 15.9634 25.0002 19.5652C25.0002 20.742 25.3135 21.873 25.8587 22.8261C23.7828 22.8091 21.8616 22.8404 20.6523 22.8261C20.6523 20.3108 20.6523 17.1067 20.6523 16.4363L20.9092 16.1795C22.0621 15.0266 21.6776 13.1051 21.6776 13.1051C21.6776 13.1051 19.7563 12.7208 18.6034 13.8737L17.2598 15.2174H15.761C12.4593 15.2174 9.78281 17.8939 9.78281 21.1956H14.1307V26.0869C14.1307 26.8023 14.2749 27.4839 14.5355 28.1046L13.0437 29.3478H10.8697V27.1738H8.6958V31.5217H18.4784V35.8695H16.3045V38.0435H20.6523V33.6956L22.645 31.3043H27.3553L29.3479 33.6956V35.8695H27.174V38.0435H35.8696V26.0868C35.8696 24.2859 37.3296 22.826 39.1305 22.826C39.1768 22.826 39.2227 22.8276 39.2686 22.8295C39.1785 22.4811 39.1305 22.1157 39.1305 21.7391C39.1307 19.4101 40.962 17.5089 43.2633 17.3967V17.3967ZM31.522 35.8694V31.3042H31.7031L33.6958 33.6955V35.8694H31.522Z" fill="#D80027"/>
</g>
<defs>
<clipPath id="clip0_105_2873">
<rect width="50" height="50" fill="white"/>
</clipPath>
</defs>
</svg>
