<svg width="50" height="50" viewBox="0 0 50 50" fill="none" xmlns="http://www.w3.org/2000/svg">
<g clip-path="url(#clip0_105_1551)">
<path d="M1.55518 33.6956C5.0875 43.2155 14.2511 50 25.0002 50C35.7493 50 44.9129 43.2155 48.4452 33.6956L25.0002 31.5217L1.55518 33.6956Z" fill="#FFDA44"/>
<path d="M25.0002 0C14.2511 0 5.0875 6.78438 1.55518 16.3044L25.0002 18.4782L48.4452 16.3043C44.9129 6.78437 35.7493 0 25.0002 0Z" fill="black"/>
<path d="M1.55498 16.3044C0.550098 19.0127 0 21.942 0 25C0 28.0581 0.550098 30.9874 1.55498 33.6957H48.4451C49.45 30.9874 50 28.0581 50 25C50 21.942 49.45 19.0127 48.445 16.3044H1.55498Z" fill="#D80027"/>
</g>
<defs>
<clipPath id="clip0_105_1551">
<rect width="50" height="50" fill="white"/>
</clipPath>
</defs>
</svg>
