<svg width="50" height="50" viewBox="0 0 50 50" fill="none" xmlns="http://www.w3.org/2000/svg">
<g clip-path="url(#clip0_105_1308)">
<path d="M50 24.9999C50 21.9419 49.4499 19.0125 48.445 16.3043L25 15.2173L1.55498 16.3042C0.550098 19.0125 0 21.9419 0 24.9999C0 28.0579 0.550098 30.9873 1.55498 33.6955L25 34.7825L48.445 33.6956C49.4499 30.9873 50 28.0579 50 24.9999Z" fill="#F0F0F0"/>
<path d="M25.0002 50.0002C35.7493 50.0002 44.9129 43.2158 48.4452 33.6958H1.55518C5.0875 43.2158 14.2511 50.0002 25.0002 50.0002Z" fill="#0052B4"/>
<path d="M1.55518 16.3044H48.4453C44.9129 6.78437 35.7493 0 25.0002 0C14.2511 0 5.0875 6.78437 1.55518 16.3044V16.3044Z" fill="#D80027"/>
<path d="M31.5217 17.3915H27.1738L27.8985 11.9566L30.797 9.78271L33.6955 11.9566V16.3045L31.5217 17.3915Z" fill="#338AF3"/>
<path d="M18.478 17.3915H22.8259L22.1012 11.9566L19.2026 9.78271L16.3042 11.9566V16.3045L18.478 17.3915Z" fill="#338AF3"/>
<path d="M27.8988 17.3915H22.1016V11.9566L25.0002 9.78271L27.8988 11.9566V17.3915Z" fill="#0052B4"/>
<path d="M16.3042 16.3047V28.2611C16.3042 31.1081 17.6794 33.6399 19.8005 35.2271L21.3223 34.8464L23.2426 36.7782C23.8104 36.8952 24.398 36.9568 24.9999 36.9568C25.5985 36.9568 26.1832 36.896 26.748 36.7802L28.9401 34.955L30.1991 35.2236C32.3193 33.6365 33.6955 31.1073 33.6955 28.2611V16.3047H16.3042Z" fill="#F0F0F0"/>
<path d="M16.3042 16.3042H19.7824V19.7824H16.3042V16.3042Z" fill="#D80027"/>
<path d="M23.2607 16.3042H26.739V19.7824H23.2607V16.3042Z" fill="#D80027"/>
<path d="M30.2173 16.3042H33.6955V19.7824H30.2173V16.3042Z" fill="#D80027"/>
<path d="M19.7822 19.7822H23.2604V23.2604H19.7822V19.7822Z" fill="#D80027"/>
<path d="M26.7388 19.7822H30.217V23.2604H26.7388V19.7822Z" fill="#D80027"/>
<path d="M16.3042 23.2598H19.7824V26.738H16.3042V23.2598Z" fill="#D80027"/>
<path d="M19.7822 26.7378H23.2604V30.216H19.7822V26.7378Z" fill="#D80027"/>
<path d="M23.2607 23.2598H26.739V26.738H23.2607V23.2598Z" fill="#D80027"/>
<path d="M30.2173 23.2598H33.6955V26.738H30.2173V23.2598Z" fill="#D80027"/>
<path d="M26.7388 26.7378H30.217V30.216H26.7388V26.7378Z" fill="#D80027"/>
<path d="M23.2607 30.2163H26.739V33.6945H23.2607V30.2163Z" fill="#D80027"/>
<path d="M19.7826 30.2163H16.5288C16.8272 31.5093 17.414 32.6924 18.2185 33.6945H19.7826V30.2163Z" fill="#D80027"/>
<path d="M30.2173 33.6945H31.7813C32.586 32.6924 33.1726 31.5092 33.471 30.2163H30.2173V33.6945Z" fill="#D80027"/>
<path d="M19.7822 33.6948V35.2125C20.7938 35.9737 21.9761 36.5195 23.2604 36.7814V33.6948H19.7822Z" fill="#D80027"/>
<path d="M26.7388 33.6948V36.7814C28.0232 36.5197 29.2054 35.9737 30.217 35.2125V33.6948H26.7388Z" fill="#D80027"/>
</g>
<defs>
<clipPath id="clip0_105_1308">
<rect width="50" height="50" fill="white"/>
</clipPath>
</defs>
</svg>
